<svg width="191" height="61" viewBox="0 0 191 61" fill="none" xmlns="http://www.w3.org/2000/svg">
<g clip-path="url(#clip0)">
<path d="M21.889 0.691895V13.1049H9.28901V0.711895L1.15601 8.84489V32.8359H9.28901V19.8649H21.889V32.8359H30.025V0.691895H21.889Z" fill="white"/>
<path d="M71.006 8.05095C69.5381 5.5357 67.3975 3.47994 64.825 2.11496C62.1048 0.724841 59.0937 0 56.039 0C52.9842 0 49.9731 0.724841 47.253 2.11496C44.6781 3.48359 42.5323 5.53807 41.053 8.05095C39.5056 10.6977 38.7174 13.7196 38.775 16.785C38.7146 19.8455 39.5019 22.8631 41.05 25.504C42.5349 28.005 44.68 30.0487 47.25 31.411C49.9701 32.8011 52.9812 33.5259 56.036 33.5259C59.0907 33.5259 62.1018 32.8011 64.822 31.411C67.3898 30.0527 69.5297 28.0076 71.003 25.504C72.5382 22.8587 73.3185 19.8429 73.259 16.785C73.3175 13.7227 72.5385 10.7027 71.006 8.05095ZM63.741 21.616C62.9851 22.9548 61.8693 24.0551 60.52 24.792C59.1507 25.531 57.6159 25.9096 56.06 25.892C54.4824 25.9123 52.9253 25.5339 51.533 24.792C50.1774 24.0635 49.0594 22.9612 48.312 21.616C47.5033 20.1367 47.099 18.4703 47.14 16.785C47.0973 15.1093 47.5018 13.4524 48.312 11.985C49.0608 10.651 50.1655 9.55147 51.503 8.80895C52.8992 8.04699 54.4685 7.65845 56.059 7.68095C57.6312 7.66186 59.1816 8.05049 60.559 8.80895C61.9007 9.54877 63.0091 10.6488 63.759 11.985C64.5331 13.473 64.9354 15.1263 64.9315 16.8037C64.9277 18.481 64.5178 20.1325 63.737 21.617L63.741 21.616Z" fill="white"/>
<path d="M97.3999 14.532V20.232H102.32V25.382C101.041 25.9755 99.6402 26.2601 98.2309 26.213C96.9661 26.2794 95.7008 26.0896 94.5111 25.6548C93.3214 25.2201 92.2319 24.5493 91.3079 23.683C90.4346 22.7676 89.7576 21.6833 89.3185 20.4967C88.8795 19.3102 88.6877 18.0464 88.7549 16.783C88.7171 15.0545 89.1644 13.3501 90.0459 11.863C90.8849 10.4686 92.1053 9.34335 93.5629 8.61996C95.1441 7.84689 96.8862 7.46029 98.6459 7.49196C100.623 7.46316 102.595 7.70268 104.508 8.20395C106.173 8.6665 107.729 9.45809 109.084 10.532V2.80496C107.55 1.82338 105.865 1.10136 104.097 0.667955C102.071 0.197131 99.9957 -0.0271605 97.9159 -4.38862e-05C94.7213 -0.0687412 91.5573 0.633775 88.6919 2.04796C86.1131 3.34391 83.9771 5.37649 82.5549 7.88796C81.0606 10.6117 80.3131 13.6821 80.3879 16.788C80.3112 19.894 81.0589 22.9649 82.5549 25.688C83.9717 28.1982 86.1097 30.2251 88.6919 31.506C91.5615 32.9058 94.7238 33.6004 97.9159 33.532C102.161 33.676 106.363 32.641 110.056 30.542V14.542L97.3999 14.532Z" fill="white"/>
<path d="M138.748 0.691895H130.741L117.867 32.8359H126.237L128.812 26.2169H140.677L143.256 32.8359H151.582L138.748 0.691895ZM130.793 19.9629L134.748 9.1629L138.648 19.9629H130.793Z" fill="white"/>
<path d="M185.238 17.8459C186.326 15.9962 186.867 13.8766 186.801 11.7319C186.801 8.16992 185.732 5.44692 183.601 3.53992C181.47 1.63292 178.518 0.690918 174.748 0.690918H160.308V32.8359H168.448V22.7659H173.048L178.153 32.8359H186.523L180.817 21.6159C182.647 20.8503 184.193 19.5323 185.238 17.8459V17.8459ZM177.098 14.9669C175.969 15.6641 174.653 15.9959 173.328 15.9169H168.453V7.54692H173.328C174.652 7.46285 175.972 7.77252 177.12 8.43692C177.596 8.83341 177.965 9.34245 178.195 9.91785C178.424 10.4933 178.506 11.1168 178.433 11.7319C178.497 12.3393 178.409 12.9531 178.176 13.5179C177.944 14.0826 177.574 14.5806 177.101 14.9669H177.098Z" fill="white"/>
<path d="M6.315 56.12C9.51 56.12 11.88 53.84 11.88 50.75C11.88 47.66 9.51 45.38 6.315 45.38C3.09 45.38 0.72 47.675 0.72 50.75C0.72 53.825 3.09 56.12 6.315 56.12ZM6.315 54.785C3.96 54.785 2.22 53.075 2.22 50.75C2.22 48.425 3.96 46.715 6.315 46.715C8.64 46.715 10.38 48.425 10.38 50.75C10.38 53.075 8.64 54.785 6.315 54.785ZM37.4827 46.805V45.5H30.0727V56H31.5727V51.755H36.8377V50.465H31.5727V46.805H37.4827ZM62.9041 46.805V45.5H55.4941V56H56.9941V51.755H62.2591V50.465H56.9941V46.805H62.9041ZM80.9156 56H82.4156V45.5H80.9156V56ZM106.154 56.12C107.789 56.12 109.199 55.55 110.159 54.47L109.184 53.525C108.374 54.38 107.384 54.785 106.229 54.785C103.859 54.785 102.104 53.075 102.104 50.75C102.104 48.425 103.859 46.715 106.229 46.715C107.384 46.715 108.374 47.105 109.184 47.96L110.159 47.015C109.199 45.935 107.789 45.38 106.169 45.38C102.974 45.38 100.604 47.645 100.604 50.75C100.604 53.855 102.974 56.12 106.154 56.12ZM128.199 56H129.699V45.5H128.199V56ZM156.273 45.5V53.33L149.973 45.5H148.743V56H150.243V48.17L156.543 56H157.773V45.5H156.273ZM184.66 56H186.235L181.465 45.5H179.98L175.225 56H176.77L177.925 53.375H183.505L184.66 56ZM178.45 52.175L180.715 47.03L182.98 52.175H178.45Z" fill="white"/>
</g>
<defs>
<clipPath id="clip0">
<rect width="191" height="61" fill="white"/>
</clipPath>
</defs>
</svg>
